<svg xmlns="http://www.w3.org/2000/svg" xmlns:xlink="http://www.w3.org/1999/xlink" width="800" height="521.04"><rect width="800" height="521.04" rx="0" ry="0" class="a"/><svg height="521.04" viewBox="0 0 80 52.104" width="800" xmlns="http://www.w3.org/2000/svg" xmlns:xlink="http://www.w3.org/1999/xlink"><style>@keyframes i{0%{transform:translateX(0)}20.6%{transform:translateX(-160px)}to{transform:translateX(-240px)}}.a{fill:#282d35}.e,.f{fill:#e88388;white-space:pre}.f{fill:#b9c0cb}</style><g font-family="Monaco,Consolas,Menlo,'Bitstream Vera Sans Mono','Powerline Symbols',monospace" font-size="1.67"><defs><symbol id="1"><path fill="#e88388" d="M0 0h7v2.171H0z"/><text y="1.67" style="white-space:pre">FATAL</text><text x="8.016" y="1.67" class="e">exec:</text><text x="14.028" y="1.67" class="e">&quot;xdg-open&quot;:</text><text x="26.052" y="1.67" class="e">executable</text><text x="37.074" y="1.67" class="e">file</text><text x="42.084" y="1.67" class="e">not</text><text x="46.092" y="1.67" class="e">found</text><text x="52.104" y="1.67" class="e">in</text><text x="55.11" y="1.67" class="e">$PATH</text></symbol><symbol id="2"><text y="1.67" class="f">exit</text><text x="5.01" y="1.67" class="f">status</text><text x="12.024" y="1.67" class="f">1</text></symbol><symbol id="a"><path fill="transparent" d="M0 0h80v24H0z"/></symbol><symbol id="b"><path fill="#6f7683" d="M0 0h1.102v2.171H0z"/></symbol></defs><path class="a" d="M0 0h80v52.104H0z"/><g style="animation-duration:5s;animation-iteration-count:infinite;animation-name:i;animation-timing-function:steps(1,end)"><svg width="320"><svg><use xlink:href="#a"/><use xlink:href="#b" x="-.004"/></svg><svg x="80"><use xlink:href="#a"/><use xlink:href="#b" x="-.004" y="2.146"/><use xlink:href="#1"/></svg><svg x="160"><use xlink:href="#a"/><use xlink:href="#b" x="-.004" y="4.317"/><use xlink:href="#1"/><use xlink:href="#2" y="2.171"/></svg><svg x="240"><use xlink:href="#a"/><use xlink:href="#b" x="-.004" y="8.659"/><use xlink:href="#1"/><use xlink:href="#2" y="2.171"/><text y="8.183" class="f">restarting...</text></svg></svg></g></g></svg></svg>