<svg xmlns="http://www.w3.org/2000/svg" xmlns:xlink="http://www.w3.org/1999/xlink" width="800" height="521.04"><rect width="800" height="521.04" rx="0" ry="0" class="a"/><svg height="521.04" viewBox="0 0 80 52.104" width="800" xmlns="http://www.w3.org/2000/svg" xmlns:xlink="http://www.w3.org/1999/xlink"><style>@keyframes i{0%{transform:translateX(0)}19.6%{transform:translateX(-400px)}to{transform:translateX(-480px)}}.a{fill:#282d35}.e,.f{fill:#e88388;white-space:pre}.f{fill:#b9c0cb}</style><g font-family="Monaco,Consolas,Menlo,'Bitstream Vera Sans Mono','Powerline Symbols',monospace" font-size="1.67"><defs><symbol id="1"><path fill="#e88388" d="M0 0h9v2.171H0z"/><text y="1.67" style="white-space:pre">FATAL</text><text x="10.02" y="1.67" class="e">exec:</text><text x="16.032" y="1.67" class="e">&quot;xdg-open&quot;:</text><text x="28.056" y="1.67" class="e">executable</text><text x="39.078" y="1.67" class="e">file</text><text x="44.088" y="1.67" class="e">not</text><text x="48.096" y="1.67" class="e">found</text><text x="54.108" y="1.67" class="e">in</text><text x="57.114" y="1.67" class="e">$PATH</text></symbol><symbol id="2"><text y="1.67" class="f">panic:</text></symbol><symbol id="3"><text y="1.67" class="f">goroutine</text><text x="10.02" y="1.67" class="f">1</text><text x="12.024" y="1.67" class="f">[running]:</text></symbol><symbol id="4"><text y="1.67" class="f">github.com/pterm/pterm.checkFatal(...)</text></symbol><symbol id="5"><text x="8.016" y="1.67" class="f">/github/home/go/pkg/mod/github.com/pterm/pterm@v0.12.8/prefix_printer.go</text></symbol><symbol id="6"><text y="1.67" class="f">:250</text></symbol><symbol id="7"><text y="1.67" class="f">github.com/pterm/pterm.(*PrefixPrinter).Println(0xdad000,</text><text x="58.116" y="1.67" class="f">0xc00012ff40,</text><text x="72.144" y="1.67" class="f">0x1,</text><text x="77.154" y="1.67" class="f">0x1</text></symbol><symbol id="8"><text y="1.67" class="f">,</text><text x="2.004" y="1.67" class="f">0x4)</text></symbol><symbol id="9"><text y="1.67" class="f">:214</text><text x="5.01" y="1.67" class="f">+0x203</text></symbol><symbol id="10"><text y="1.67" class="f">main.main()</text></symbol><symbol id="11"><text x="8.016" y="1.67" class="f">/github/workspace/dops.go:74</text><text x="37.074" y="1.67" class="f">+0x6c2</text></symbol><symbol id="12"><text y="1.67" class="f">exit</text><text x="5.01" y="1.67" class="f">status</text><text x="12.024" y="1.67" class="f">2</text></symbol><symbol id="a"><path fill="transparent" d="M0 0h80v24H0z"/></symbol><symbol id="b"><path fill="#6f7683" d="M0 0h1.102v2.171H0z"/></symbol></defs><path class="a" d="M0 0h80v52.104H0z"/><g style="animation-duration:5s;animation-iteration-count:infinite;animation-name:i;animation-timing-function:steps(1,end)"><svg width="560"><svg><use xlink:href="#a"/><use xlink:href="#b" x="-.004"/></svg><svg x="80"><use xlink:href="#a"/><use xlink:href="#b" x="-.004" y="2.146"/><use xlink:href="#1"/></svg><svg x="160"><use xlink:href="#a"/><use xlink:href="#b" x="-.004" y="8.659"/><use xlink:href="#1"/><use xlink:href="#2" y="2.171"/><use xlink:href="#3" y="6.513"/></svg><svg x="240"><use xlink:href="#a"/><use xlink:href="#b" x="79.996" y="10.83"/><use xlink:href="#1"/><use xlink:href="#2" y="2.171"/><use xlink:href="#3" y="6.513"/><use xlink:href="#4" y="8.684"/><use xlink:href="#5" y="10.855"/></svg><svg x="320"><use xlink:href="#a"/><use xlink:href="#b" x="-.004" y="28.198"/><use xlink:href="#1"/><use xlink:href="#2" y="2.171"/><use xlink:href="#3" y="6.513"/><use xlink:href="#4" y="8.684"/><use xlink:href="#5" y="10.855"/><use xlink:href="#6" y="13.026"/><use xlink:href="#7" y="15.197"/><use xlink:href="#8" y="17.368"/><use xlink:href="#5" y="19.539"/><use xlink:href="#9" y="21.71"/><use xlink:href="#10" y="23.881"/><use xlink:href="#11" y="26.052"/></svg><svg x="400"><use xlink:href="#a"/><use xlink:href="#b" x="-.004" y="30.369"/><use xlink:href="#1"/><use xlink:href="#2" y="2.171"/><use xlink:href="#3" y="6.513"/><use xlink:href="#4" y="8.684"/><use xlink:href="#5" y="10.855"/><use xlink:href="#6" y="13.026"/><use xlink:href="#7" y="15.197"/><use xlink:href="#8" y="17.368"/><use xlink:href="#5" y="19.539"/><use xlink:href="#9" y="21.71"/><use xlink:href="#10" y="23.881"/><use xlink:href="#11" y="26.052"/><use xlink:href="#12" y="28.223"/></svg><svg x="480"><use xlink:href="#a"/><use xlink:href="#b" x="-.004" y="34.711"/><use xlink:href="#1"/><use xlink:href="#2" y="2.171"/><use xlink:href="#3" y="6.513"/><use xlink:href="#4" y="8.684"/><use xlink:href="#5" y="10.855"/><use xlink:href="#6" y="13.026"/><use xlink:href="#7" y="15.197"/><use xlink:href="#8" y="17.368"/><use xlink:href="#5" y="19.539"/><use xlink:href="#9" y="21.71"/><use xlink:href="#10" y="23.881"/><use xlink:href="#11" y="26.052"/><use xlink:href="#12" y="28.223"/><text y="34.235" class="f">restarting...</text></svg></svg></g></g></svg></svg>